<svg xmlns:dc="http://purl.org/dc/elements/1.1/" xmlns:cc="http://creativecommons.org/ns#" xmlns:rdf="http://www.w3.org/1999/02/22-rdf-syntax-ns#" xmlns:svg="http://www.w3.org/2000/svg" xmlns="http://www.w3.org/2000/svg" xmlns:xlink="http://www.w3.org/1999/xlink" version="1.0" width="1040px" height="540px">
	<defs>
		<linearGradient id="grad" x1="100%" y1="100%" x2="0%" y2="0%">
			<stop offset="0%" style="stop-color:rgb(16,182,133);stop-opacity:1"/>
			<stop offset="100%" style="stop-color:rgb(23,49,137);stop-opacity:1"/>
		</linearGradient>
		<style type="text/css">
			@import url(https://fonts.googleapis.com/css?family=Teko);
		</style>
	</defs>
	<text fill="url(#grad)" style="font-family: teko; font-size: 500px;" x="-26" y="540">Picchio</text>
	<path id="path11" d="  M -0.080088448,413.81701   C 88.017204,419.54333 150.24593,399.72144 217.40009,369.44801   C 280.14939,341.13674 309.34163,308.74097 319.51286,267.37528   C 327.80202,233.41778 321.27481,206.18771 301.73323,169.74747   C 290.72107,149.20478 283.8735,137.71209 288.43854,125.33842   C 293.00359,112.96476 299.53079,103.91476 323.91773,103.15392   C 348.3447,102.43312 431.1962,125.33842 434.88027,120.93356   C 438.60438,116.48865 329.12348,87.176275 319.99339,78.446635   C 308.30048,67.274296 310.62304,54.460145 299.45071,39.603737   C 290.1204,27.270116 278.90802,16.578309 257.36423,9.9710118   C 235.78039,3.3637148 199.17997,3.2836264 170.06782,-0.080088448   C 199.42024,6.3269874 226.41004,122.25502 226.04964,153.80986   C 225.96956,162.13906 227.57132,173.87202 223.12642,199.46028   C 212.27443,148.28376 166.86428,140.15478 142.39726,143.11806   C 109.36078,147.08243 88.057248,172.71074 75.403274,200.78174   C 62.749299,228.89278 65.51235,274.26289 66.513456,311.74428   C 68.115225,371.20996 44.288912,386.34667 -0.080088448,413.81701  " fill="url(#grad)" style="stroke: none; transform: translate(714px) scale(0.7);" y="800" x="20"/>
</svg>